Coordinates
version=1
nRows=16
nColumns=38
inDegrees=no

Units are S.I. units (second, meters, Newtons, ...)
If the header above contains a line with 'inDegrees', this indicates whether rotational values are in degrees (yes) or radians (no).

endheader
time	pelvis_tilt	pelvis_list	pelvis_rotation	pelvis_tx	pelvis_ty	pelvis_tz	hip_flexion_r	hip_adduction_r	hip_rotation_r	knee_angle_r	ankle_angle_r	subtalar_angle_r	mtp_angle_r	hip_flexion_l	hip_adduction_l	hip_rotation_l	knee_angle_l	ankle_angle_l	subtalar_angle_l	mtp_angle_l	lumbar_extension	lumbar_bending	lumbar_rotation	arm_flex_r	arm_add_r	arm_rot_r	elbow_flex_r	pro_sup_r	wrist_flex_r	wrist_dev_r	arm_flex_l	arm_add_l	arm_rot_l	elbow_flex_l	pro_sup_l	wrist_flex_l	wrist_dev_l
0.008333	-0.0948017	-0.0948132	0.0893777	0.761552	0.987353	-0.399234	0.926386	-0.0549461	-0.185146	-1.76927	0.284663	0.0146342	-0.0415119	-0.276305	-0.203694	-0.390071	-0.385753	0.0446311	0.0999999	-0.0429336	-0.199456	0.132548	-0.337035	-0.712934	-0.572674	-0.168668	1.65667	1.28673	0.0370778	-0.0172792	0.0202282	-0.537035	-0.0869359	2.43264	1.56223	-0.00132512	-0.0204243
0.016667	-0.109094	-0.0906279	0.074913	0.762556	0.990107	-0.398334	0.941301	-0.0446297	-0.1855	-1.63069	0.309774	0.0146342	-0.0415119	-0.28994	-0.197718	-0.383175	-0.405848	-0.0491384	0.0999999	-0.0429336	-0.187308	0.130118	-0.340251	-0.73744	-0.58097	-0.188966	1.66741	1.29373	0.0370778	-0.0172792	0.00183312	-0.545767	-0.0595236	2.44666	1.5893	-0.00132512	-0.0204243
0.025	-0.120342	-0.0850971	0.0611863	0.763293	0.992392	-0.397526	0.946656	-0.0348467	-0.186151	-1.49121	0.3329	0.0146342	-0.0415119	-0.299392	-0.189336	-0.368992	-0.440005	-0.124197	0.0999999	-0.0429336	-0.179025	0.126309	-0.342551	-0.757548	-0.587865	-0.208601	1.67748	1.29898	0.0370778	-0.0172792	-0.0195567	-0.552166	-0.03558	2.45626	1.61466	-0.00132512	-0.0204243
0.033333	-0.128518	-0.0782645	0.0482014	0.763822	0.994214	-0.396817	0.942556	-0.0256079	-0.187127	-1.3511	0.353966	0.0146342	-0.0415119	-0.304761	-0.178636	-0.347913	-0.488064	-0.180986	0.0999999	-0.0429336	-0.174607	0.121172	-0.343909	-0.773285	-0.593367	-0.227586	1.6869	1.30248	0.0370778	-0.0172792	-0.0438917	-0.556203	-0.0150443	2.46139	1.63805	-0.00132512	-0.0204243
0.041667	-0.133562	-0.070267	0.0359582	0.764201	0.995565	-0.3962	0.92936	-0.0169363	-0.188494	-1.21128	0.372801	0.0146342	-0.0415119	-0.306336	-0.165908	-0.321106	-0.549558	-0.220732	0.0999999	-0.0429336	-0.174033	0.114853	-0.344246	-0.784736	-0.597504	-0.245956	1.6957	1.30427	0.0370778	-0.0172792	-0.0710121	-0.557805	0.00227095	2.46188	1.65866	-0.00132512	-0.0204243
0.05	-0.1354	-0.0613609	0.024435	0.764489	0.996424	-0.395658	0.90782	-0.00888827	-0.190375	-1.07354	0.389241	0.0146342	-0.0415119	-0.304617	-0.151685	-0.290573	-0.623615	-0.245457	0.0999999	-0.0429336	-0.177216	0.107615	-0.343405	-0.792061	-0.600348	-0.263742	1.70394	1.3045	0.0370778	-0.0172792	-0.100607	-0.556873	0.0167038	2.45748	1.67508	-0.00132512	-0.0204243
0.058333	-0.134021	-0.0519287	0.0135773	0.764738	0.99676	-0.395167	0.879149	-0.00154463	-0.19289	-0.940626	0.4031	0.0146342	-0.0415119	-0.300275	-0.136726	-0.258935	-0.708965	-0.257635	0.0999999	-0.0429336	-0.183968	0.0998011	-0.341157	-0.795488	-0.602029	-0.280932	1.71168	1.30344	0.0370778	-0.0172792	-0.132211	-0.553328	0.0287097	2.44784	1.68549	-0.00132512	-0.0204243
0.066667	-0.129519	-0.0424027	0.00328989	0.764985	0.996531	-0.394708	0.844993	0.005021	-0.196073	-0.816078	0.413991	0.0146342	-0.0415119	-0.294028	-0.121957	-0.229004	-0.804032	-0.259681	0.0999999	-0.0429336	-0.193965	0.0918211	-0.337227	-0.795264	-0.602738	-0.297425	1.71899	1.30152	0.0370778	-0.0172792	-0.165244	-0.547166	0.0387773	2.43264	1.68798	-0.00132512	-0.0204243
0.075	-0.122134	-0.0332462	-0.00653822	0.765249	0.9957	-0.39427	0.807312	0.0107657	-0.199792	-0.703829	0.421093	0.0146342	-0.0415119	-0.286503	-0.108348	-0.203273	-0.907058	-0.253525	0.0999999	-0.0429336	-0.206739	0.0840982	-0.331344	-0.7916	-0.602715	-0.313	1.72592	1.29924	0.0370778	-0.0172792	-0.199066	-0.538484	0.0473219	2.41161	1.68105	-0.00132512	-0.0204243
0.083333	-0.112269	-0.0249149	-0.0159987	0.76553	0.994239	-0.39385	0.76819	0.0156799	-0.203771	-0.607768	0.42309	0.0146342	-0.0415119	-0.278097	-0.0967974	-0.183487	-1.01625	-0.240398	0.0999999	-0.0429336	-0.221706	0.0770439	-0.323299	-0.784608	-0.602225	-0.327322	1.73249	1.29715	0.0370778	-0.0172792	-0.233048	-0.527494	0.054589	2.38458	1.66412	-0.00132512	-0.0204243
0.091667	-0.100479	-0.0178292	-0.0251424	0.765807	0.992134	-0.393449	0.729626	0.0198372	-0.207537	-0.531274	0.41834	0.0146342	-0.0415119	-0.26888	-0.0880478	-0.170422	-1.12988	-0.220966	0.0999999	-0.0429336	-0.238215	0.0710453	-0.312979	-0.774265	-0.601531	-0.339968	1.73873	1.29566	0.0370778	-0.0172792	-0.266622	-0.514494	0.0605951	2.35156	1.63788	-0.00132512	-0.0204243
0.1	-0.087437	-0.0123588	-0.0339798	0.766038	0.989382	-0.393068	0.693363	0.0234296	-0.210459	-0.476871	0.405451	0.0146342	-0.0415119	-0.258546	-0.0826511	-0.163895	-1.24641	-0.195627	0.0999999	-0.0429336	-0.255597	0.0664603	-0.300359	-0.760394	-0.60085	-0.35049	1.74467	1.29508	0.0370778	-0.0172792	-0.29931	-0.499828	0.0651272	2.31275	1.60452	-0.00132512	-0.0204243
0.108333	-0.073886	-0.00881907	-0.0425069	0.766163	0.985994	-0.392699	0.660766	0.026764	-0.211887	-0.44603	0.384186	0.0146342	-0.0415119	-0.246414	-0.080961	-0.162928	-1.36447	-0.164818	0.0999999	-0.0429336	-0.273226	0.0636077	-0.285465	-0.742685	-0.600319	-0.358476	1.75039	1.29553	0.0370778	-0.0172792	-0.330717	-0.483849	0.0678005	2.26847	1.56771	-0.00132512	-0.0204243
0.116667	-0.0605888	-0.00746199	-0.0507499	0.766114	0.981985	-0.39233	0.632752	0.0302576	-0.211242	-0.439056	0.356277	0.0146342	-0.0415119	-0.231487	-0.0831603	-0.166039	-1.48288	-0.129227	0.0999999	-0.0429336	-0.290547	0.0627554	-0.268307	-0.720736	-0.599964	-0.363605	1.756	1.29707	0.0370778	-0.0172792	-0.360504	-0.466891	0.0681546	2.21925	1.53234	-0.00132512	-0.0204243
0.125	-0.0482878	-0.00846615	-0.058804	0.765819	0.9774	-0.391943	0.609753	0.0343974	-0.208116	-0.454978	0.325785	0.0146342	-0.0415119	-0.212521	-0.089276	-0.171513	-1.60052	-0.0898056	0.0999999	-0.0429336	-0.307082	0.0640941	-0.248827	-0.694123	-0.599677	-0.36567	1.76171	1.2998	0.0370778	-0.0172792	-0.388365	-0.449254	0.0657648	2.16578	1.50418	-0.00132512	-0.0204243
0.133333	-0.037665	-0.0119161	-0.0668509	0.7652	0.972356	-0.391521	0.591647	0.0396814	-0.20234	-0.491385	0.298575	0.0146342	-0.0415119	-0.188148	-0.0991811	-0.177645	-1.71629	-0.0476767	0.0999999	-0.0429336	-0.322409	0.0677014	-0.226882	-0.662478	-0.599217	-0.364584	1.76775	1.30395	0.0370778	-0.0172792	-0.414023	-0.431212	0.0603373	2.10899	1.48933	-0.00132512	-0.0204243
